<svg xmlns="http://www.w3.org/2000/svg" width="2810.16" height="2537.965" viewBox="0 0 2810.16 2537.965">
  <defs>
    <style>
      .cls-1 {
        fill-rule: evenodd;
      }
    </style>
  </defs>
  <path id="Preenchimento_de_Cor_1" data-name="Preenchimento de Cor 1" class="cls-1" d="M97.749,221.869H657.117V776.8L97.749,976.572v-754.7Zm1180.891,0h563.8V355.052l-563.8,199.774V221.869Zm723.62,0h368.48V554.826H2002.26V221.869Zm537.17,0h368.48V554.826H2539.43V221.869ZM657.117,1309.53v230.85L97.749,1740.15V1087.56q317.419-113.2,634.839-226.413H1278.64V665.812l563.8-199.774V1118.63q-281.895,99.9-563.8,199.78v-8.88H657.117Zm1558.243-608.2h483.89V812.313q-241.935,86.569-483.89,173.138V701.327Zm483.89,226.411V1984.32H2215.36V1096.44Q2457.31,1012.08,2699.25,927.738Zm-856.81,1047.7h-563.8V1429.39q281.895-99.885,563.8-199.77v745.82ZM657.117,1655.8v319.64H97.749v-124.3Q377.433,1753.475,657.117,1655.8Zm989.993,488.34c207.79-2.91,345.64,56.76,350.71,253.05,17.57-6.01-112.65.43-182.01,0-3.54-43.09-13.98-108.89-102.11-110.99-37.59-.27-59.76,5.39-88.79,31.08-48.06,42.54-42.48,225.6,8.88,266.36,52.93,42.02,138.66,30.45,168.7-13.31,21.63-31.51,18.54-61.6,22.2-66.59-0.03.49,136.02-.01,168.7,0,0.36,0.66,4.79,27.49-8.88,97.66-7.39,37.93-42.23,80.94-71.03,102.11-119.78,88-381.27,71.56-461.7-39.96-108.48-150.37-83.51-358.48,35.51-457.26C1530.84,2170.15,1585.7,2149.74,1647.11,2144.14ZM506.177,2308.4v443.94c-0.425-.19-195.033-0.86-195.335,0V2308.4H115.507V2148.58h586c1.261,0.29-.735,160.14,0,159.82H506.177ZM794.74,2148.58h519.41c-0.2.01-.33,142.41,0,142.06-1.01.8,0.57-.08-177.57,0-201.8-.56-89.95.16-150.945,0v84.35H1265.32c-0.08,3.75.34,94.18,0,137.62H985.635v93.23H1318.59c-0.81,42.05.34,101.82,0,146.5H794.74C794.783,2745.61,794.74,2351.45,794.74,2148.58Zm1496.09,0v221.97h213.09V2148.58h195.33c0,0.2-.08,603.27,0,603.76H2503.92c-0.19-.26-0.33-160.06,0-221.97H2290.83v221.97c-93.93-.09-115.35-0.14-190.9,0,0.12-.47,0-602.69,0-603.76C2099.27,2148.4,2232.46,2148.23,2290.83,2148.58Zm-643.72-4.44" transform="translate(-97.75 -221.875)"/>
</svg>
