<svg width="60" height="55" viewBox="0 0 60 55" fill="none" xmlns="http://www.w3.org/2000/svg">
<g clip-path="url(#clip0_47_68)">
<g clip-path="url(#clip1_47_68)">
<path fill-rule="evenodd" clip-rule="evenodd" d="M0 0.000701904H11.9431V11.8491L0 16.1144V0.00076576V0.000701904ZM25.2133 0.000701904H37.2511V2.84431L25.2133 7.1097V0.000701904ZM40.6634 0.000701904H48.5308V7.1097H40.6634V0.000701904ZM52.1326 0.000701904H60V7.1097H52.1326V0.000701904ZM11.9431 23.2235V28.1524L0 32.4177V18.4842C4.51816 16.8729 9.03633 15.2615 13.5545 13.65H25.2133V9.47937L37.2511 5.21398V19.1475C33.2386 20.5695 29.226 21.9914 25.2133 23.4131V23.2235H11.9431ZM45.2133 10.2377H55.5449V12.6073C52.1012 13.8396 48.6573 15.0718 45.2133 16.304V10.2377V10.2377ZM55.5449 15.0718V37.631H45.2133V18.6738C48.6573 17.473 52.1011 16.2723 55.5449 15.0718V15.0718ZM37.2511 37.4414H25.2133V25.7826C29.2258 24.3608 33.2384 22.9391 37.2511 21.5173V37.4414V37.4414ZM11.9431 30.6167V37.4414H0V34.7874C3.98104 33.3973 7.96208 32.007 11.9431 30.6167ZM33.0806 41.0433C37.5171 40.9812 40.4604 42.2552 40.5686 46.4462C40.9437 46.3179 38.1634 46.4554 36.6825 46.4462C36.6069 45.5262 36.384 44.1213 34.5023 44.0764C33.6997 44.0707 33.2264 44.1915 32.6066 44.74C31.5804 45.6483 31.6996 49.5568 32.7962 50.4271C33.9263 51.3243 35.7567 51.0773 36.3981 50.1429C36.8599 49.4702 36.7939 48.8277 36.8721 48.7212C36.8714 48.7316 39.7763 48.7209 40.474 48.7212C40.4817 48.7352 40.5763 49.3081 40.2844 50.8063C40.1266 51.6161 39.3828 52.5345 38.7678 52.9865C36.2104 54.8654 30.6273 54.5144 28.91 52.1333C26.5939 48.9227 27.127 44.4793 29.6682 42.3703C30.5981 41.5986 31.7694 41.1629 33.0806 41.0433ZM8.72039 44.5504V54.029C8.71131 54.025 4.55622 54.0107 4.54977 54.029V44.5504H0.379153V41.1381H12.8909C12.9178 41.1443 12.8752 44.5573 12.8909 44.5504H8.72039ZM14.8815 41.1381H25.9715C25.9672 41.1383 25.9645 44.1787 25.9715 44.1712C25.9499 44.1883 25.9837 44.1695 22.1802 44.1712C17.8715 44.1593 20.2596 44.1747 18.9573 44.1712V45.9722H24.9289C24.9272 46.0523 24.9362 47.9831 24.9289 48.9105H18.9573V50.9011H26.0663C26.049 51.7989 26.0736 53.0751 26.0663 54.029H14.8815C14.8824 53.8853 14.8815 45.4696 14.8815 41.1381ZM46.8247 41.1381V45.8774H51.3744V41.1381H55.5449C55.5449 41.1424 55.5432 54.0186 55.5449 54.029H51.3744C51.3703 54.0235 51.3673 50.6116 51.3744 49.2897H46.8247V54.029C44.8192 54.0271 44.3618 54.0261 42.7488 54.029C42.7513 54.019 42.7488 41.1609 42.7488 41.1381C42.7347 41.1343 45.5784 41.1306 46.8247 41.1381Z" fill="white"/>
</g>
</g>
<defs>
<clipPath id="clip0_47_68">
<rect width="60" height="54.19" fill="white"/>
</clipPath>
<clipPath id="clip1_47_68">
<rect width="60" height="54.1883" fill="white" transform="translate(0 0.000823975)"/>
</clipPath>
</defs>
</svg>
