<?xml version="1.0" encoding="UTF-8"?>
<svg id="Camada_1" data-name="Camada 1" xmlns="http://www.w3.org/2000/svg" viewBox="0 0 1539.91 416.88">
  <defs>
    <style>
      .cls-1 {
        fill: #41c5c6;
        stroke-width: 0px;
      }
    </style>
  </defs>
  <g>
    <polygon class="cls-1" points="0 416.88 215.42 416.88 282.99 365.15 282.32 192.86 428.4 192.52 480.81 129.2 480.81 0 45.52 0 0 36.56 0 416.88"/>
    <polyline class="cls-1" points="215.42 416.88 282.99 365.15 282.32 192.86"/>
    <polygon class="cls-1" points="760.99 0 549.29 0 497.11 64.75 497.47 223.48 351.7 223.82 299.28 283.69 299.28 416.7 706.91 416.88 760.99 380.32 760.99 0"/>
  </g>
  <g>
    <polygon class="cls-1" points="778.92 416.88 994.34 416.88 1061.91 365.15 1061.24 192.86 1207.32 192.52 1259.74 129.2 1259.74 0 824.44 0 778.92 36.56 778.92 416.88"/>
    <polyline class="cls-1" points="994.34 416.88 1061.91 365.15 1061.24 192.86"/>
    <polygon class="cls-1" points="1539.91 0 1328.22 0 1276.03 64.75 1276.4 223.48 1130.62 223.82 1078.21 283.69 1078.21 416.7 1495.24 416.88 1539.91 380.32 1539.91 0"/>
  </g>
</svg>