<svg width="322" height="286" viewBox="0 0 322 286" fill="none" xmlns="http://www.w3.org/2000/svg">
<path fill-rule="evenodd" clip-rule="evenodd" d="M0.859985 0.933716H64.6378V63.2238L0.859985 85.6479V0.933716ZM135.502 0.933716H199.785V15.8833L135.502 38.3076V0.933716ZM218.008 0.933716H260.021V38.3076H218.008V0.933716ZM279.255 0.933716H321.268V38.3076H279.255V0.933716ZM64.6378 123.022V148.934L0.859985 171.358V98.1062C24.9875 89.6352 49.1151 81.1636 73.2428 72.6917H135.502V50.7656L199.785 28.3413V101.594C178.358 109.069 156.93 116.544 135.502 124.019V123.022H64.6378ZM242.305 54.7525H297.477V67.2101C279.087 73.6883 260.696 80.1664 242.305 86.6446V54.7525ZM297.477 80.1667V198.766H242.305V99.1029C260.696 92.7901 279.087 86.4782 297.477 80.1667ZM199.785 197.769H135.502V136.476C156.93 129.001 178.357 121.527 199.785 114.052V197.769ZM64.6378 161.89V197.769H0.859985V183.817C22.1192 176.508 43.3785 169.199 64.6378 161.89ZM177.514 216.706C201.206 216.379 216.923 223.077 217.501 245.11C219.505 244.435 204.657 245.158 196.749 245.11C196.346 240.273 195.155 232.887 185.107 232.652C180.821 232.621 178.293 233.257 174.983 236.14C169.503 240.915 170.14 261.464 175.996 266.039C182.031 270.755 191.805 269.457 195.23 264.545C197.697 261.008 197.344 257.63 197.762 257.07C197.758 257.125 213.27 257.069 216.996 257.07C217.037 257.144 217.543 260.156 215.984 268.032C215.141 272.29 211.169 277.118 207.885 279.494C194.228 289.372 164.414 287.527 155.243 275.009C142.875 258.13 145.722 234.77 159.292 223.682C164.258 219.625 170.513 217.334 177.514 216.706ZM47.428 235.144V284.975C47.3795 284.954 25.1908 284.879 25.1563 284.975V235.144H2.88471V217.204H69.699C69.8428 217.237 69.6152 235.179 69.699 235.144H47.428ZM80.3292 217.204H139.551C139.528 217.205 139.513 233.189 139.551 233.15C139.436 233.24 139.616 233.141 119.305 233.15C96.2962 233.087 109.049 233.168 102.095 233.15V242.618H133.984C133.974 243.039 134.022 253.19 133.984 258.066H102.095V268.531H140.057C139.965 273.251 140.096 279.96 140.057 284.975H80.3292C80.3341 284.22 80.3292 239.976 80.3292 217.204ZM250.91 217.204V242.12H275.206V217.204H297.477C297.477 217.226 297.468 284.92 297.477 284.975H275.206C275.184 284.946 275.168 267.009 275.206 260.059H250.91V284.975C240.2 284.965 237.758 284.959 229.144 284.975C229.157 284.922 229.144 217.324 229.144 217.204C229.069 217.184 244.255 217.165 250.91 217.204Z" fill="#A0C3FF"/>
</svg>
