<?xml version="1.0" encoding="UTF-8"?>
<svg version="1.1" xmlns="http://www.w3.org/2000/svg" width="512" height="512">
<path d="M0 0 C2.11848835 1.98524809 4.21668917 3.99087067 6.3125 6 C7.25996094 6.89460938 8.20742188 7.78921875 9.18359375 8.7109375 C48.67252003 46.91157256 69.44242452 101.69043647 70.66845703 156.05200195 C71.05262985 215.52490878 47.40264187 269.89750715 6.25 312.3125 C2.39550809 316.0552675 -1.73581588 319.4390142 -5.9296875 322.79296875 C-7.62106851 324.14655271 -9.29709972 325.51995271 -10.9453125 326.92578125 C-51.86531975 361.35847028 -109.02747261 376.81668715 -161.78076172 372.29785156 C-188.08436059 369.60253906 -214.86214268 363.48400845 -238.23828125 350.71484375 C-244.18705454 348.97859892 -251.28080837 351.52329308 -257.13208008 353.08544922 C-257.934879 353.29535492 -258.73767792 353.50526062 -259.56480408 353.7215271 C-262.19685689 354.41102927 -264.82693034 355.10778044 -267.45703125 355.8046875 C-269.30243221 356.28975063 -271.14794917 356.77437262 -272.99357605 357.25857544 C-277.84188078 358.53186483 -282.68851908 359.8113889 -287.53485107 361.09216309 C-292.43950113 362.38705289 -297.34582906 363.6755525 -302.25195312 364.96484375 C-309.45369211 366.8587417 -316.65501394 368.75421046 -323.85473633 370.65576172 C-324.6411189 370.86320951 -325.42750147 371.07065731 -326.23771381 371.2843914 C-331.34920756 372.63603946 -336.44825131 374.02711484 -341.53398132 375.47317505 C-345.64973149 376.48002951 -349.63392378 377.21062354 -353.4765625 374.9453125 C-355.67510119 373.18439762 -357.41964818 371.53570364 -358.6875 369 C-359.21496504 363.01967714 -358.39873057 357.66038961 -356.74731445 351.93603516 C-356.54076736 351.18495483 -356.33422028 350.43387451 -356.12141418 349.66003418 C-355.44202604 347.19989129 -354.74650484 344.74463063 -354.05078125 342.2890625 C-353.56846806 340.55411325 -353.08722029 338.81886751 -352.60697937 337.08334351 C-351.34161378 332.52087752 -350.06269284 327.96232454 -348.78057861 323.40454102 C-347.24172308 317.92487247 -345.71858567 312.44082017 -344.19326305 306.95737267 C-342.77971012 301.87703143 -341.36074385 296.79827338 -339.93480206 291.72139549 C-339.28269204 289.38667337 -338.64136441 287.04917829 -338.00088501 284.71124268 C-337.09430176 281.41333976 -336.12856444 278.13867292 -335.13363647 274.86639404 C-334.64106864 273.17844677 -334.14884026 271.49040039 -333.65698242 269.80224609 C-333.4122157 269.03543833 -333.16744898 268.26863056 -332.91526508 267.4785862 C-330.99599966 260.72511955 -332.71305119 257.01373668 -336.09399414 250.93237305 C-336.46645264 250.36043213 -336.83891113 249.78849121 -337.22265625 249.19921875 C-361.02488596 210.2187556 -362.04971926 153.38744699 -352.2890625 110.29296875 C-344.48671701 78.4575963 -330.59951203 49.28606924 -309.6875 24 C-309.20249023 23.41347656 -308.71748047 22.82695313 -308.21777344 22.22265625 C-272.49265461 -20.69285158 -222.92494476 -46.80447213 -167.6875 -54 C-166.69363281 -54.13277344 -165.69976562 -54.26554687 -164.67578125 -54.40234375 C-105.13446156 -60.74762307 -43.94542861 -40.35342376 0 0 Z " fill="#40C351" transform="translate(399.6875,97)"/>
<path d="M0 0 C2.11848835 1.98524809 4.21668917 3.99087067 6.3125 6 C7.25996094 6.89460938 8.20742188 7.78921875 9.18359375 8.7109375 C48.67252003 46.91157256 69.44242452 101.69043647 70.66845703 156.05200195 C71.05262985 215.52490878 47.40264187 269.89750715 6.25 312.3125 C2.39550809 316.0552675 -1.73581588 319.4390142 -5.9296875 322.79296875 C-7.62106851 324.14655271 -9.29709972 325.51995271 -10.9453125 326.92578125 C-51.86531975 361.35847028 -109.02747261 376.81668715 -161.78076172 372.29785156 C-188.08436059 369.60253906 -214.86214268 363.48400845 -238.23828125 350.71484375 C-244.18705454 348.97859892 -251.28080837 351.52329308 -257.13208008 353.08544922 C-257.934879 353.29535492 -258.73767792 353.50526062 -259.56480408 353.7215271 C-262.19685689 354.41102927 -264.82693034 355.10778044 -267.45703125 355.8046875 C-269.30243221 356.28975063 -271.14794917 356.77437262 -272.99357605 357.25857544 C-277.84188078 358.53186483 -282.68851908 359.8113889 -287.53485107 361.09216309 C-292.43950113 362.38705289 -297.34582906 363.6755525 -302.25195312 364.96484375 C-309.45369211 366.8587417 -316.65501394 368.75421046 -323.85473633 370.65576172 C-324.6411189 370.86320951 -325.42750147 371.07065731 -326.23771381 371.2843914 C-331.34920756 372.63603946 -336.44825131 374.02711484 -341.53398132 375.47317505 C-345.64973149 376.48002951 -349.63392378 377.21062354 -353.4765625 374.9453125 C-355.67510119 373.18439762 -357.41964818 371.53570364 -358.6875 369 C-359.21496504 363.01967714 -358.39873057 357.66038961 -356.74731445 351.93603516 C-356.54076736 351.18495483 -356.33422028 350.43387451 -356.12141418 349.66003418 C-355.44202604 347.19989129 -354.74650484 344.74463063 -354.05078125 342.2890625 C-353.56846806 340.55411325 -353.08722029 338.81886751 -352.60697937 337.08334351 C-351.34161378 332.52087752 -350.06269284 327.96232454 -348.78057861 323.40454102 C-347.24172308 317.92487247 -345.71858567 312.44082017 -344.19326305 306.95737267 C-342.77971012 301.87703143 -341.36074385 296.79827338 -339.93480206 291.72139549 C-339.28269204 289.38667337 -338.64136441 287.04917829 -338.00088501 284.71124268 C-337.09430176 281.41333976 -336.12856444 278.13867292 -335.13363647 274.86639404 C-334.64106864 273.17844677 -334.14884026 271.49040039 -333.65698242 269.80224609 C-333.4122157 269.03543833 -333.16744898 268.26863056 -332.91526508 267.4785862 C-330.99599966 260.72511955 -332.71305119 257.01373668 -336.09399414 250.93237305 C-336.46645264 250.36043213 -336.83891113 249.78849121 -337.22265625 249.19921875 C-361.02488596 210.2187556 -362.04971926 153.38744699 -352.2890625 110.29296875 C-344.48671701 78.4575963 -330.59951203 49.28606924 -309.6875 24 C-309.20249023 23.41347656 -308.71748047 22.82695313 -308.21777344 22.22265625 C-272.49265461 -20.69285158 -222.92494476 -46.80447213 -167.6875 -54 C-166.69363281 -54.13277344 -165.69976562 -54.26554687 -164.67578125 -54.40234375 C-105.13446156 -60.74762307 -43.94542861 -40.35342376 0 0 Z M-178.6875 -6 C-179.50822998 -5.82686279 -180.32895996 -5.65372559 -181.17456055 -5.4753418 C-210.97185472 0.92502303 -237.65059306 16.07805562 -259.6875 37 C-260.18894531 37.46889648 -260.69039062 37.93779297 -261.20703125 38.42089844 C-292.15226055 67.50263765 -310.152815 108.61194733 -311.80126953 150.91992188 C-312.63199519 183.37569426 -306.69636839 217.83756677 -288.22290039 245.29663086 C-283.08602902 252.97395185 -283.08602902 252.97395185 -283.375 257.75 C-283.87890625 260.20703125 -283.87890625 260.20703125 -284.6875 263 C-285.16509766 264.70736328 -285.16509766 264.70736328 -285.65234375 266.44921875 C-286.45604294 269.24524595 -287.29932443 272.02727018 -288.15234375 274.80859375 C-290.06874033 281.15895622 -291.716492 287.57838559 -293.375 294 C-293.82093506 295.7178772 -293.82093506 295.7178772 -294.27587891 297.47045898 C-295.8613357 303.62568248 -297.35119901 309.78587126 -298.6875 316 C-291.30435144 315.31383378 -284.29735105 313.52479958 -277.125 311.6875 C-275.87734863 311.37135742 -274.62969727 311.05521484 -273.34423828 310.72949219 C-256.45493647 306.54079525 -256.45493647 306.54079525 -239.8359375 301.41796875 C-234.26204521 300.33359334 -230.16772106 303.2923776 -225.5625 306.0625 C-207.43448479 316.58250509 -188.29233847 322.57676229 -167.6875 326 C-166.65625 326.18949219 -165.625 326.37898438 -164.5625 326.57421875 C-154.03505732 327.73096396 -143.2636749 327.13728999 -132.6875 327 C-131.92888672 326.99274902 -131.17027344 326.98549805 -130.38867188 326.97802734 C-91.94781953 326.37675208 -53.69304654 306.40791342 -26.6875 280 C-25.69506246 279.06788902 -24.70155672 278.13691418 -23.70703125 277.20703125 C-11.13530759 265.27385842 -1.57771011 251.37599348 6.3125 236 C6.78163818 235.09846191 6.78163818 235.09846191 7.26025391 234.17871094 C19.02560572 211.30059217 24.5006216 187.21034896 24.49780273 161.59814453 C24.49997543 159.3998638 24.5181552 157.20209785 24.53710938 155.00390625 C24.5928924 141.45366039 23.40167332 128.27482326 19.6875 115.1875 C19.42807617 114.26227539 19.16865234 113.33705078 18.90136719 112.38378906 C6.14370914 68.53402434 -23.76814806 32.44561067 -63.45703125 10.24536133 C-79.2296325 1.70249607 -96.11658665 -3.60519508 -113.6875 -7 C-114.4204126 -7.17136475 -115.1533252 -7.34272949 -115.90844727 -7.51928711 C-124.2101095 -9.30693245 -132.42169041 -9.3380229 -140.8737793 -9.31567383 C-143.35315556 -9.31252772 -145.83131839 -9.33599725 -148.31054688 -9.36132812 C-158.80586505 -9.40280256 -168.44492071 -8.32728784 -178.6875 -6 Z " fill="#FEFEFE" transform="translate(399.6875,97)"/>
<path d="M0 0 C2.11848835 1.98524809 4.21668917 3.99087067 6.3125 6 C7.25996094 6.89460938 8.20742188 7.78921875 9.18359375 8.7109375 C48.67252003 46.91157256 69.44242452 101.69043647 70.66845703 156.05200195 C71.05262985 215.52490878 47.40264187 269.89750715 6.25 312.3125 C2.39550809 316.0552675 -1.73581588 319.4390142 -5.9296875 322.79296875 C-7.62106851 324.14655271 -9.29709972 325.51995271 -10.9453125 326.92578125 C-51.86531975 361.35847028 -109.02747261 376.81668715 -161.78076172 372.29785156 C-188.08436059 369.60253906 -214.86214268 363.48400845 -238.23828125 350.71484375 C-244.18705454 348.97859892 -251.28080837 351.52329308 -257.13208008 353.08544922 C-257.934879 353.29535492 -258.73767792 353.50526062 -259.56480408 353.7215271 C-262.19685689 354.41102927 -264.82693034 355.10778044 -267.45703125 355.8046875 C-269.30243221 356.28975063 -271.14794917 356.77437262 -272.99357605 357.25857544 C-277.84188078 358.53186483 -282.68851908 359.8113889 -287.53485107 361.09216309 C-292.43950113 362.38705289 -297.34582906 363.6755525 -302.25195312 364.96484375 C-309.45369211 366.8587417 -316.65501394 368.75421046 -323.85473633 370.65576172 C-324.6411189 370.86320951 -325.42750147 371.07065731 -326.23771381 371.2843914 C-331.34920756 372.63603946 -336.44825131 374.02711484 -341.53398132 375.47317505 C-345.64973149 376.48002951 -349.63392378 377.21062354 -353.4765625 374.9453125 C-355.67510119 373.18439762 -357.41964818 371.53570364 -358.6875 369 C-359.21496504 363.01967714 -358.39873057 357.66038961 -356.74731445 351.93603516 C-356.54076736 351.18495483 -356.33422028 350.43387451 -356.12141418 349.66003418 C-355.44202604 347.19989129 -354.74650484 344.74463063 -354.05078125 342.2890625 C-353.56846806 340.55411325 -353.08722029 338.81886751 -352.60697937 337.08334351 C-351.34161378 332.52087752 -350.06269284 327.96232454 -348.78057861 323.40454102 C-347.24172308 317.92487247 -345.71858567 312.44082017 -344.19326305 306.95737267 C-342.77971012 301.87703143 -341.36074385 296.79827338 -339.93480206 291.72139549 C-339.28269204 289.38667337 -338.64136441 287.04917829 -338.00088501 284.71124268 C-337.09430176 281.41333976 -336.12856444 278.13867292 -335.13363647 274.86639404 C-334.64106864 273.17844677 -334.14884026 271.49040039 -333.65698242 269.80224609 C-333.4122157 269.03543833 -333.16744898 268.26863056 -332.91526508 267.4785862 C-330.99599966 260.72511955 -332.71305119 257.01373668 -336.09399414 250.93237305 C-336.46645264 250.36043213 -336.83891113 249.78849121 -337.22265625 249.19921875 C-361.02488596 210.2187556 -362.04971926 153.38744699 -352.2890625 110.29296875 C-344.48671701 78.4575963 -330.59951203 49.28606924 -309.6875 24 C-309.20249023 23.41347656 -308.71748047 22.82695313 -308.21777344 22.22265625 C-272.49265461 -20.69285158 -222.92494476 -46.80447213 -167.6875 -54 C-166.69363281 -54.13277344 -165.69976562 -54.26554687 -164.67578125 -54.40234375 C-105.13446156 -60.74762307 -43.94542861 -40.35342376 0 0 Z M-189.6875 -39 C-191.19238369 -38.65612825 -192.6975893 -38.31366205 -194.203125 -37.97265625 C-243.65413056 -26.09876585 -287.469593 7.62288023 -314.6875 50 C-315.11272949 50.65806641 -315.53795898 51.31613281 -315.97607422 51.99414062 C-328.19136464 71.13659498 -336.26032658 92.00976013 -341.6875 114 C-341.91195801 114.87398437 -342.13641602 115.74796875 -342.36767578 116.6484375 C-345.71174259 130.15815945 -346.04868812 143.59640562 -346.0625 157.4375 C-346.06458466 158.28731445 -346.06666931 159.13712891 -346.06881714 160.01269531 C-346.06002099 191.67269563 -339.33251414 223.81538786 -323.78662109 251.64599609 C-320.52476916 257.60811671 -319.87647135 261.69608606 -321.53515625 268.453125 C-321.93605469 269.70609375 -322.33695313 270.9590625 -322.75 272.25 C-325.51021887 281.12885586 -327.82539984 290.10398338 -330.09985352 299.11816406 C-331.50125269 304.61968238 -332.98669376 310.06605977 -334.68359375 315.484375 C-336.75496574 322.10041384 -338.4936749 328.77884013 -340.1875 335.5 C-342.21123523 343.5302553 -344.3858875 351.45668545 -346.93554688 359.33789062 C-347.82341454 362.02012747 -347.82341454 362.02012747 -347.6875 365 C-346.74205322 364.76345703 -345.79660645 364.52691406 -344.82250977 364.28320312 C-338.21984636 362.63170423 -331.61684688 360.98159356 -325.01229858 359.33764648 C-321.98255181 358.58338495 -318.95305882 357.82810684 -315.92358398 357.07275391 C-314.3895089 356.69049792 -312.85532887 356.30866287 -311.32104492 355.92724609 C-302.18509363 353.65562512 -293.06877275 351.32809947 -283.97729492 348.88427734 C-281.22040734 348.14324233 -278.46142588 347.41228412 -275.69921875 346.69140625 C-274.98217773 346.50400879 -274.26513672 346.31661133 -273.52636719 346.12353516 C-272.01817813 345.73022848 -270.5096883 345.33807424 -269.00097656 344.94677734 C-264.88763894 343.87198081 -260.79692486 342.75028899 -256.72265625 341.53515625 C-255.91932861 341.29917725 -255.11600098 341.06319824 -254.28833008 340.82006836 C-252.76769515 340.37046325 -251.25028071 339.90975313 -249.73706055 339.43579102 C-241.22658555 336.93725748 -235.25065752 339.39459143 -227.625 343.25 C-213.09345468 350.32482487 -198.47432742 354.72086285 -182.6875 358 C-181.90681152 358.16806152 -181.12612305 358.33612305 -180.32177734 358.50927734 C-132.2878378 368.44130041 -79.03930128 357.87722233 -37.6875 332 C-36.68847656 331.37609375 -35.68945312 330.7521875 -34.66015625 330.109375 C-7.07363519 312.27419976 16.13242841 288.46665981 32.28320312 259.81933594 C33.27922992 258.0588066 34.3032426 256.31420154 35.328125 254.5703125 C44.99221123 237.73220002 51.00310697 218.85419774 55.3125 200 C55.54582031 198.99582031 55.77914063 197.99164063 56.01953125 196.95703125 C57.93335151 188.07635448 58.47036977 179.13080294 58.515625 170.06640625 C58.52132507 169.14899155 58.52702515 168.23157684 58.53289795 167.28636169 C58.54227997 165.3544121 58.5488546 163.42244699 58.55273438 161.49047852 C58.56237235 158.60077366 58.59343384 155.7118023 58.625 152.82226562 C58.7173225 136.78002977 56.97787962 121.39740208 52.5625 105.9375 C52.30500977 105.02178223 52.04751953 104.10606445 51.78222656 103.16259766 C45.4518811 81.25717052 35.73602272 60.45931701 22.3125 42 C21.90531738 41.43732422 21.49813477 40.87464844 21.07861328 40.29492188 C15.03300669 32.01668548 8.39242839 24.40356792 1.3125 17 C0.43851562 16.07316406 -0.43546875 15.14632812 -1.3359375 14.19140625 C-8.25449484 7.03952513 -15.67722793 0.86856916 -23.6875 -5 C-24.25388184 -5.41604492 -24.82026367 -5.83208984 -25.40380859 -6.26074219 C-41.63268874 -18.00514268 -59.74201899 -27.01789788 -78.72167969 -33.33447266 C-80.41383883 -33.90735217 -82.08804452 -34.53277711 -83.7578125 -35.16796875 C-93.67890496 -38.85658005 -104.26928324 -40.34328348 -114.6875 -42 C-115.74670654 -42.17724609 -116.80591309 -42.35449219 -117.8972168 -42.53710938 C-122.41823399 -43.08924133 -126.85596916 -43.19890913 -131.40625 -43.23828125 C-132.33350388 -43.24802979 -133.26075775 -43.25777832 -134.21611023 -43.26782227 C-162.19037948 -43.57094689 -162.19037948 -43.57094689 -189.6875 -39 Z " fill="#CFD8DC" transform="translate(399.6875,97)"/>
<path d="M0 0 C0.68143066 -0.01893311 1.36286133 -0.03786621 2.06494141 -0.05737305 C7.19700908 0.00948004 9.90486662 1.35232808 13.875 4.5 C15.76586914 7.43237305 15.76586914 7.43237305 17.34765625 10.82421875 C17.63681412 11.43585373 17.92597198 12.04748871 18.22389221 12.67765808 C19.12834881 14.60966937 20.00473284 16.5523754 20.875 18.5 C21.15462585 19.11731995 21.43425171 19.73463989 21.72235107 20.3706665 C23.37975999 24.04216349 24.97664913 27.73525487 26.5300293 31.4519043 C27.32234387 33.33590721 28.13670443 35.20947042 28.95117188 37.08398438 C34.9456372 51.3843081 34.9456372 51.3843081 31.87890625 58.9609375 C31.40324219 59.59257812 30.92757812 60.22421875 30.4375 60.875 C29.63119141 61.98101562 29.63119141 61.98101562 28.80859375 63.109375 C27.3963615 64.8554076 25.94532705 66.57025764 24.47265625 68.265625 C23.65667969 69.20921875 22.84070313 70.1528125 22 71.125 C21.21882813 71.98351562 20.43765625 72.84203125 19.6328125 73.7265625 C17.33426172 77.35316485 17.25637011 79.26582207 17.875 83.5 C19.2173463 86.11480907 20.49648758 88.26554992 22.1875 90.625 C22.63536865 91.27098145 23.0832373 91.91696289 23.54467773 92.58251953 C28.24635597 99.2442491 33.41603826 105.45066166 38.875 111.5 C39.59042969 112.29921875 40.30585938 113.0984375 41.04296875 113.921875 C52.87841804 126.44569001 74.51001571 143.39500121 92.125 144.75 C101.24389283 141.71036906 107.2412732 130.60073739 112.90625 123.08984375 C114.875 120.5 114.875 120.5 115.875 119.5 C123.33938835 118.68412499 128.48971788 121.150512 135.125 124.375 C136.1660791 124.86734131 137.2071582 125.35968262 138.27978516 125.86694336 C141.48769542 127.39239514 144.68266541 128.9422471 147.875 130.5 C149.37595215 131.22775635 149.37595215 131.22775635 150.90722656 131.97021484 C153.69296485 133.32479526 156.47329794 134.68950118 159.25 136.0625 C160.09336914 136.47935059 160.93673828 136.89620117 161.80566406 137.32568359 C162.5787793 137.71449707 163.35189453 138.10331055 164.1484375 138.50390625 C164.82310059 138.84236572 165.49776367 139.1808252 166.19287109 139.52954102 C167.875 140.5 167.875 140.5 169.875 142.5 C171.28327538 153.32407009 169.15264429 164.4445978 162.75 173.375 C153.26162746 184.39766257 139.53306902 190.35705206 125.28515625 191.75390625 C89.20247091 193.32271866 49.66008167 171.47098683 23.74511719 147.9284668 C21.09408742 145.48091856 18.47996724 142.99638924 15.875 140.5 C15.12347656 139.78972656 14.37195313 139.07945312 13.59765625 138.34765625 C8.20310387 133.12402038 3.52623662 127.38587205 -1.125 121.5 C-2.29869141 120.03433594 -2.29869141 120.03433594 -3.49609375 118.5390625 C-21.65750661 95.46680361 -37.87233017 71.02882526 -36.125 40.5 C-34.06902738 25.44801697 -25.7430062 12.63987051 -14.26953125 2.9296875 C-9.87651044 0.15616885 -5.07621787 0.11215301 0 0 Z " fill="#FDFEFD" transform="translate(189.125,161.5)"/>
</svg>
